<?xml version="1.0" standalone="no"?><!DOCTYPE svg PUBLIC "-//W3C//DTD SVG 1.1//EN" "http://www.w3.org/Graphics/SVG/1.1/DTD/svg11.dtd"><svg t="1775803191012" class="icon" viewBox="0 0 1024 1024" version="1.1" xmlns="http://www.w3.org/2000/svg" p-id="1664" xmlns:xlink="http://www.w3.org/1999/xlink" width="200" height="200"><path d="M513.1 111.219c106.3 0 192.472 85.961 192.472 192 0 35.597-9.711 68.932-26.636 97.512l128.939 74.259c15.935-11.67 35.605-18.562 56.889-18.562 53.15 0 96.236 42.981 96.236 96 0 53.02-43.086 96-96.236 96-53.15 0-96.236-42.98-96.236-96 0-8.429 1.089-16.604 3.134-24.393l-134.893-77.689c-25.683 21.505-57.079 36.442-91.589 42.218v166.688c55.343 14.21 96.235 64.325 96.235 123.967 0 70.692-57.449 128-128.315 128-70.867 0-128.315-57.308-128.315-128 0-59.643 40.892-109.758 96.235-123.968V492.564c-34.547-5.782-65.973-20.744-91.671-42.286l-135.011 77.757a95.932 95.932 0 0 1 3.134 24.393c0 53.02-43.086 96-96.236 96-53.15 0-96.236-42.98-96.236-96 0-53.019 43.086-96 96.236-96 21.284 0 40.954 6.893 56.89 18.562l129.086-74.345c-16.893-28.56-26.585-61.864-26.585-97.426 0-106.039 86.173-192 192.473-192z" fill="#FF6A00" p-id="1665"></path></svg>